<?xml version="1.0" encoding="utf-8"?>
<!-- Generator: Adobe Illustrator 21.1.0, SVG Export Plug-In . SVG Version: 6.00 Build 0)  -->
<svg version="1.1" id="Слой_1" xmlns="http://www.w3.org/2000/svg" xmlns:xlink="http://www.w3.org/1999/xlink" x="0px" y="0px"
	 viewBox="0 0 186.3 186.2" enable-background="new 0 0 186.3 186.2" xml:space="preserve">
<g>
	<path fill="#FA0034" d="M94.9,0C41.3-0.8,0.6,40.9,0,91.9c-0.6,51,38.8,93.8,92.7,94.3c52.5,0.5,93.4-41.9,93.6-92.3
		C186.3,40.9,145.1,0.8,94.9,0z M93.3,180.1c-49.2-0.3-86.9-40-87.1-87.3C5.9,49.9,39.7,6.3,93.3,6.1c49.1-0.2,86.7,39.5,86.9,87.2
		C180.4,138.4,144.6,179.2,93.3,180.1z"/>
	<path id="Fill-4" fill="#FA0034" d="M92.9,54.6h-0.6c-1.6,0-2.9-1.3-2.9-2.9V32.1c0-1.6,1.3-2.9,2.9-2.9h0.6c1.6,0,2.9,1.3,2.9,2.9
		v19.6C95.7,53.3,94.4,54.6,92.9,54.6"/>
	<path id="Fill-6" fill="#FA0034" d="M92.9,156.9h-0.6c-1.6,0-2.9-1.3-2.9-2.9v-19.6c0-1.6,1.3-2.9,2.9-2.9h0.6
		c1.6,0,2.9,1.3,2.9,2.9v19.6C95.7,155.7,94.4,156.9,92.9,156.9"/>
	<path id="Fill-8" fill="#FA0034" d="M54.6,93.4V94c0,1.6-1.3,2.9-2.9,2.9H32.2c-1.6,0-2.9-1.3-2.9-2.9v-0.6c0-1.6,1.3-2.9,2.9-2.9
		h19.6C53.4,90.5,54.6,91.8,54.6,93.4"/>
	<path id="Fill-10" fill="#FA0034" d="M157,93.4V94c0,1.6-1.3,2.9-2.9,2.9h-19.6c-1.6,0-2.9-1.3-2.9-2.9v-0.6c0-1.6,1.3-2.9,2.9-2.9
		h19.6C155.7,90.5,157,91.8,157,93.4"/>
	<path id="Fill-12" fill="#FA0034" d="M72.8,113.6l0.4,0.4c1.1,1.1,1.1,2.9,0,4l-21,21c-1.1,1.1-2.9,1.1-4,0l-0.4-0.4
		c-1.1-1.1-1.1-2.9,0-4l21-21C69.9,112.5,71.7,112.5,72.8,113.6"/>
	<path id="Fill-14" fill="#FA0034" d="M138.1,48.3l0.4,0.4c1.1,1.1,1.1,2.9,0,4L116,75.3c-1.1,1.1-2.9,1.1-4,0l-0.4-0.4
		c-1.1-1.1-1.1-2.9,0-4L134,48.3C135.2,47.2,137,47.2,138.1,48.3"/>
	<path id="Fill-16" fill="#FA0034" d="M73.2,73.3l-0.4,0.4c-1.1,1.1-2.9,1.1-4,0l-21-21c-1.1-1.1-1.1-2.9,0-4l0.4-0.4
		c1.1-1.1,2.9-1.1,4,0l21,21C74.3,70.4,74.3,72.2,73.2,73.3"/>
	<path id="Fill-18" fill="#FA0034" d="M138.5,138.6l-0.4,0.4c-1.1,1.1-2.9,1.1-4,0l-22.5-22.5c-1.1-1.1-1.1-2.9,0-4l0.4-0.4
		c1.1-1.1,2.9-1.1,4,0l22.5,22.5C139.6,135.7,139.6,137.5,138.5,138.6"/>
</g>
</svg>
