<?xml version="1.0" encoding="utf-8"?>
<!-- Generator: Adobe Illustrator 21.1.0, SVG Export Plug-In . SVG Version: 6.00 Build 0)  -->
<svg version="1.1" id="Слой_1" xmlns="http://www.w3.org/2000/svg" xmlns:xlink="http://www.w3.org/1999/xlink" x="0px" y="0px"
	 viewBox="0 0 89.7 89.6" enable-background="new 0 0 89.7 89.6" xml:space="preserve">
<title>Page 1</title>
<desc>Created with Sketch.</desc>
<g id="Clip-2">
</g>
<path fill="#FA0034" d="M45.7,0C19.9-0.4,0.3,19.7,0,44.2s18.7,45.2,44.6,45.4c25.2,0.2,44.9-20.2,45-44.4
	C89.7,19.7,69.8,0.4,45.7,0z M44.9,86.7C21.2,86.5,3.1,67.4,3,44.7C2.9,24,19.1,3,44.9,2.9c23.6-0.1,41.7,19,41.8,42
	C86.8,66.6,69.6,86.3,44.9,86.7z"/>
<path fill="#FA0034" d="M67,21.6c-0.2,0.1-0.8,0.2-1.2,0.4C50,27.5,34.2,33,18.4,38.5c-1.9,0.7-2.5,1.3-2.4,2.3
	c0.2,1.1,1.1,1.6,3,1.6c5.6,0.1,10.8,1.6,15.7,4.1c8.4,4.3,13.4,14.3,13.3,25.3c0,1,0.8,2.4,1.7,2.7c1.2,0.4,1.6-0.5,1.9-1.3
	c0.6-1.5,1.1-3,1.6-4.5c5.1-14.6,10.2-29.2,15.3-43.8c0.2-0.5,0.3-1,0.4-1.5C69.1,22.2,68.4,21.6,67,21.6z M64.8,27.4
	c-0.3,0.8-0.8,1.5-1.1,2.3c-4,11.3-7.9,22.6-11.8,34c-0.1,0.2-0.1,0.4-0.2,0.6c-0.2,0.2-0.5,0.5-0.8,0.6c-0.1,0-0.5-0.4-0.5-0.7
	c-0.7-2.1-1.3-4.3-2.1-6.4c-0.7-1.8-1.6-3.5-2.6-5.2c-2.6-4.4-6.3-7.4-11.1-9.3c-2.2-0.8-4.4-1.7-6.6-2.6c-0.5-0.2-1.2-0.2-1.7-0.4
	c0-0.1-0.1-0.2-0.1-0.3c0.7-0.4,1.3-0.9,2-1.1c5.3-2.1,10.5-4.4,15.8-6.3c5.9-2.1,11.9-4,17.8-5.9c0.5-0.2,0.9-0.6,1.5-0.8
	c0.4-0.1,1.2-0.2,1.4,0.1C64.9,26.2,64.9,26.9,64.8,27.4z"/>
</svg>
