<?xml version="1.0" encoding="utf-8"?>
<!-- Generator: Adobe Illustrator 21.1.0, SVG Export Plug-In . SVG Version: 6.00 Build 0)  -->
<svg version="1.1" id="Слой_1" xmlns="http://www.w3.org/2000/svg" xmlns:xlink="http://www.w3.org/1999/xlink" x="0px" y="0px"
	 viewBox="0 0 89.7 89.6" enable-background="new 0 0 89.7 89.6" xml:space="preserve">
<title>Page 1</title>
<desc>Created with Sketch.</desc>
<g id="Clip-2">
</g>
<g>
	<path fill="#FA0034" d="M45.7,0C19.9-0.4,0.3,19.7,0,44.2c-0.3,24.5,18.7,45.1,44.6,45.4c25.2,0.2,44.9-20.2,45-44.4
		C89.7,19.7,69.8,0.4,45.7,0z M44.9,86.7C21.2,86.5,3.1,67.4,3,44.7C2.9,24,19.1,3,44.9,2.9c23.6-0.1,41.7,19,41.8,42
		C86.8,66.6,69.6,86.3,44.9,86.7z"/>
	<path id="Fill-4" fill="#FA0034" d="M50.6,39.1c0.5,0.5,0.5,1.4,0,1.9L24.9,66.7c-0.5,0.5-1.4,0.5-1.9,0c-0.5-0.5-0.5-1.4,0-1.9
		l25.7-25.7C49.2,38.6,50.1,38.6,50.6,39.1"/>
	<path id="Fill-6" fill="#FA0034" d="M66.7,23.5c0.5,0.5,0.5,1.4,0,1.9l-8.9,8.9c-0.5,0.5-1.4,0.5-1.9,0c-0.5-0.5-0.5-1.4,0-1.9
		l8.9-8.9C65.3,22.9,66.1,22.9,66.7,23.5"/>
</g>
</svg>
