<?xml version="1.0" encoding="utf-8"?>
<!-- Generator: Adobe Illustrator 21.1.0, SVG Export Plug-In . SVG Version: 6.00 Build 0)  -->
<svg version="1.1" id="Слой_1" xmlns="http://www.w3.org/2000/svg" xmlns:xlink="http://www.w3.org/1999/xlink" x="0px" y="0px"
	 viewBox="0 0 89.6 89.7" enable-background="new 0 0 89.6 89.7" xml:space="preserve">
<path fill="#FA0034" d="M45.4,0C19.6-0.2,0.2,20.1,0,44.3c-0.2,25.5,20,45,44.7,45.4c25.3-0.4,44.6-20,44.9-44.2
	C89.9,19.5,69.5,0.2,45.4,0z M44.6,86.9c-22.8-0.1-42-19.1-41.9-42.3C2.8,21.7,21.8,2.5,45,2.8C67.9,2.7,87,21.8,86.9,45
	C86.8,67.9,67.8,87,44.6,86.9z"/>
<path fill="#FA0034" d="M45.5,12.3c-12.6-0.1-23.3,10.8-23.3,23c0,12.4,10.6,23.4,23,23c12.5,0.5,23.1-10.6,23.2-22.8
	C68.4,23,57.7,12.4,45.5,12.3z M45.2,55.6c-10.6,0-20.3-9.5-20.3-20.4c0-10.7,9.6-20.8,20.4-20.1c10.6-0.6,20.3,9.4,20.3,20.2
	C65.6,46.1,56,55.7,45.2,55.6z"/>
<path fill="#FA0034" d="M45.5,32.3c-12.6-0.1-23.3,10.8-23.3,23c0,12.4,10.6,23.4,23,23c12.5,0.5,23.1-10.6,23.2-22.8
	C68.4,43,57.7,32.4,45.5,32.3z M45.2,75.7c-10.6,0-20.3-9.5-20.3-20.4c0-10.7,9.6-20.8,20.4-20.1c10.6-0.6,20.3,9.4,20.3,20.2
	C65.6,66.1,56,75.7,45.2,75.7z"/>
</svg>
