<?xml version="1.0" encoding="utf-8"?>
<!-- Generator: Adobe Illustrator 21.1.0, SVG Export Plug-In . SVG Version: 6.00 Build 0)  -->
<svg version="1.1" id="Слой_1" xmlns="http://www.w3.org/2000/svg" xmlns:xlink="http://www.w3.org/1999/xlink" x="0px" y="0px"
	 viewBox="0 0 88.9 89.1" enable-background="new 0 0 88.9 89.1" xml:space="preserve">
<g id="Clip-2">
</g>
<path fill="#FA0034" d="M43.9,0C19.8,0-0.3,20.5,0,45.4C0.3,69.3,19.8,89,44.5,89.1C69,89.1,88.9,69,88.9,44.3
	C89,20.2,68.5,0,43.9,0z M44.3,86.1c-22.8,0-41.5-18.5-41.4-41.6C3,21.6,21.3,3.3,44.5,3c22.9,0.4,41.6,18.4,41.4,42.1
	C85.6,67.8,67.3,86.1,44.3,86.1z"/>
<path fill="#FA0034" d="M67.3,24c0.5-1.4-1-2.8-2.3-2.3c-2.1,0.8-4.3,1.7-6.3,2.6c-1.3,0.6-2.5,1-3.9,0.2c-1.1-0.6-2.3-1.2-3.5-1.5
	c-6.4-2.1-12.5-1.1-18.3,2.1c-5.1,2.8-8.1,7.2-10,12.5c-1.1,3-1.4,6.1-1,9.3c0.3,2.4,0.7,4.7,2,6.8c1.1,1.8,1.3,3.6,0,5.7
	c-1.1,1.8-1.7,3.9-2.3,5.9c-0.2,0.6,0.1,1.6,0.5,2c0.4,0.4,1.4,0.4,2,0.1c2.1-0.8,4.2-1.7,6.3-2.7c1.2-0.6,2.3-0.7,3.4-0.1
	c3.3,1.7,6.7,2.9,9.6,2.7c12.7-0.2,19.4-7,22.4-15.2c1.1-2.8,1.5-5.8,1.2-8.8c-0.2-2.6-0.6-5.2-2.1-7.6c-1.1-1.9-1.5-3.9-0.1-6.1
	C66,27.9,66.6,25.9,67.3,24z M60.1,26.6c0.7-0.5,1.6-0.8,2.7-1.3c0.2,0.4,0.5,0.8,0.5,1c-0.2,0.7-0.4,1.4-0.8,2
	c-0.3,0.4-0.9,0.9-1.4,0.8c-0.5-0.1-1.2-0.6-1.4-1C59.5,27.8,59.8,26.9,60.1,26.6z M27.9,62.8c-0.7,0.3-1.6,0.4-2.4,0.6
	c0.2-0.9,0.2-1.9,0.6-2.7c0.2-0.5,1.1-0.9,1.6-0.9c0.6,0.1,1.1,0.8,1.8,1.4C28.8,62,28.4,62.6,27.9,62.8z M30.5,58.7
	c-3.7-3.6-5.3-8.1-5.7-13.1c-0.1-0.6-0.1-1.2-0.1-1.8c-0.3-6.5,2.6-11.4,7.7-15c8.1-5.8,18.9-5,26.1,1.9c1.2,1.2,1.4,2.1,0.5,3.5
	c-6.7,10-15,18.4-25.1,25C32.5,60.1,31.7,59.9,30.5,58.7z M62.9,51.5C58.7,62,49.3,65.7,39.2,63.8c-1.1-0.2-2.1-0.6-3.1-1
	c-0.8-0.3-0.8-0.7-0.1-1.2c6.8-5.2,13.3-10.7,18.8-17.3c1.5-1.8,2.8-3.6,4.3-5.4c0.9-1.1,1.8-2.2,2.8-3.3c0.3,0.3,0.5,0.5,0.6,0.7
	C64.1,41.3,65,46.3,62.9,51.5z"/>
</svg>
