<?xml version="1.0" encoding="utf-8"?>
<!-- Generator: Adobe Illustrator 21.1.0, SVG Export Plug-In . SVG Version: 6.00 Build 0)  -->
<svg version="1.1" id="Слой_1" xmlns="http://www.w3.org/2000/svg" xmlns:xlink="http://www.w3.org/1999/xlink" x="0px" y="0px"
	 width="14" height="14" viewBox="0 0 14 14" enable-background="new 0 0 14 14" xml:space="preserve">
<path fill="#FFFFFF" d="M10.2,0L10.2,0L3.8,0C1.7,0,0,1.7,0,3.8v6.4C0,12.3,1.7,14,3.8,14h6.4c2.1,0,3.8-1.7,3.8-3.8V3.8
	C14,1.7,12.3,0,10.2,0z M12.9,10.2L12.9,10.2c0,1.5-1.2,2.6-2.7,2.6H3.8c-1.5,0-2.6-1.2-2.6-2.6V3.8c0-1.5,1.2-2.6,2.6-2.6h6.4
	c1.5,0,2.7,1.2,2.7,2.6V10.2z"/>
<path fill="#FFFFFF" d="M10.1,6.5L10.1,6.5C10,5.9,9.7,5.3,9.2,4.8c-0.7-0.7-1.7-1-2.7-0.9C5.7,4,5,4.5,4.5,5.1
	C4,5.8,3.8,6.6,3.9,7.4C4,8.3,4.5,9,5.1,9.5c0.7,0.5,1.5,0.7,2.3,0.6C8.3,10,9,9.5,9.5,8.8C10,8.2,10.2,7.3,10.1,6.5z M7.3,9
	C6.8,9,6.2,8.9,5.8,8.6C5.4,8.3,5.1,7.8,5,7.3C4.9,6.8,5.1,6.2,5.4,5.8C5.8,5.2,6.6,4.9,7.3,5C8.2,5.1,8.8,5.8,9,6.7
	C9.1,7.8,8.4,8.8,7.3,9z"/>
<ellipse transform="matrix(0.7071 -0.7071 0.7071 0.7071 0.6522 8.4635)" fill="#FFFFFF" cx="10.5" cy="3.4" rx="0.6" ry="0.6"/>
</svg>
