<?xml version="1.0" encoding="UTF-8"?>
<svg width="56" height="36" viewBox="0 0 56 36" version="1.1" xmlns="http://www.w3.org/2000/svg" xmlns:xlink="http://www.w3.org/1999/xlink">
    <!-- Generator: Sketch 49 (51002) - http://www.bohemiancoding.com/sketch -->
    <title>logo_me</title>
    <desc>Created with Sketch.</desc>
    <defs></defs>
    <g id="Page-1" stroke="none" stroke-width="1" fill="none" fill-rule="evenodd">
        <g id="logo_me" fill="#D5293D">
            <path d="M8.48941963,29.4165223 C7.33631174,27.2161386 4.61399574,26.3616873 2.41278637,27.5114197 C0.213539733,28.666057 -0.637306688,31.3844089 0.511875734,33.5838115 C1.665965,35.7841952 4.38141142,36.6386465 6.58654626,35.4879331 C8.7857929,34.3401628 9.63663932,31.6188679 8.48941963,29.4165223" id="Fill-1"></path>
            <path d="M45.9635584,7.04836105 C45.2112444,5.68954793 43.3437701,3.72154626 40.6667941,5.09269497 C38.5971909,6.15165826 38.4305578,8.23257807 38.8279137,9.78401623 C38.9748269,10.0070058 39.1217402,10.2366376 39.2647094,10.4805028 L45.9635584,7.04836105 Z M49.87007,19.6809581 C43.5291372,22.9309127 37.9434763,21.2561186 34.8306906,15.6348833 C34.6472956,15.3065667 34.4816484,14.9649657 34.3298052,14.6186202 L34.3100853,14.6252624 C32.8616589,12.0129632 31.1489858,10.9625399 29.2785536,11.9209207 C27.9011188,12.6231006 27.474183,13.9771693 27.6437741,15.260071 C27.7512476,15.7231303 27.9790124,16.3152388 28.246217,16.7944291 L34.0645726,27.306253 L28.4089061,30.2032197 L22.8163434,20.0927772 C21.5749759,17.8533924 19.8830087,16.7365467 18.0076465,17.6949275 C16.5148503,18.462581 16.2496177,20.0140192 16.3955449,21.0710847 C16.4507606,21.6100552 16.6923294,22.1442813 16.958548,22.6196762 L22.7552117,33.1011354 L17.0985592,36 L10.3306906,23.7564486 C9.08735109,21.5094727 7.97416291,19.6790603 7,18.0991554 L11.9299742,15.5722565 L13.503622,17.8818592 L13.6140534,17.8258746 C13.7698406,16.2374296 14.5152527,13.6773194 17.6802962,12.0575611 C20.1285214,10.804075 22.6733741,11.0574291 24.5142265,12.5215692 L24.5802882,12.4864602 C24.7843891,11.1561138 25.179773,10.0117503 25.8127817,9.02490275 C26.532558,7.94601273 27.5027769,7.02463875 28.8752817,6.32245879 C30.6096467,5.43334714 32.449513,5.21794869 34.2272618,5.83757506 C35.0919792,4.03562945 36.6084393,2.40733106 38.960037,1.2041362 C44.9913675,-1.89304677 49.7882325,1.45559254 52.2473036,5.90969084 C52.7767828,6.86048046 53.132727,7.76667217 53.2806262,8.20600909 L41.2475451,14.3785505 C42.6831536,16.6160375 45.6963538,16.4841415 48.4078397,15.0959127 C50.3985633,14.0739562 51.8598076,12.9960151 53.1416009,11.6780043 L56,15.0740882 C54.5141058,16.8247937 52.3892869,18.3876185 49.87007,19.6809581 Z" id="Fill-3"></path>
        </g>
    </g>
</svg>