<?xml version="1.0" encoding="utf-8"?>
<!-- Generator: Adobe Illustrator 21.1.0, SVG Export Plug-In . SVG Version: 6.00 Build 0)  -->
<svg version="1.1" id="Слой_1" xmlns="http://www.w3.org/2000/svg" xmlns:xlink="http://www.w3.org/1999/xlink" x="0px" y="0px"
	 viewBox="0 0 131 35.9" enable-background="new 0 0 131 35.9" xml:space="preserve">
<title>Page 1</title>
<desc>Created with Sketch.</desc>
<g id="Clip-2">
</g>
<g>
	<path fill="#EA223E" d="M113.9,0.5c0-0.1,0-0.3,0-0.4h-10.7c0,5.7,0,11.4,0,17.1c0,0.5,0,0.5-0.5,0.5c-1.7,0-3.3,0-5,0h-0.5v-0.5
		c0-5.5,0-11.1,0-16.6c0-0.2,0-0.3,0-0.5H46.9c-0.8,1.2-1.5,2.5-2.3,3.7c-2.5,4-5,8.1-7.6,12.1c-0.1,0.1-0.1,0.2-0.2,0.3
		c0-0.2,0-0.3,0-0.3c0-5.2,0-10.3,0-15.5c0-0.1,0-0.2,0-0.3h-11c-0.3,0.4-0.5,0.7-0.8,1.1c-2.1,2.8-4.3,5.6-6.4,8.4
		c-0.1,0.1-0.1,0.2-0.2,0.3c-0.6-0.7-1.1-1.4-1.6-2.1c-1.9-2.5-3.8-4.9-5.7-7.4C11,0.2,11,0.1,10.9,0H0c0,0.2,0,0.3,0,0.5
		c0,11.3,0,22.6,0,33.8v0.6h0.4c3.3,0,6.6,0,10,0c0.4,0,0.4-0.1,0.4-0.4c0-5.9,0-11.7,0-17.6v-0.4c0,0,0.1,0,0.1,0
		c2.5,3.2,5,6.4,7.5,9.6c2.5-3.2,5-6.4,7.5-9.7c0,0,0.1,0,0.1,0v18.5c0.2,0,0.3,0,0.4,0c3.3,0,6.7,0,10,0c0.3,0,0.4-0.1,0.6-0.3
		c1.4-2.3,2.8-4.5,4.2-6.8c0.1-0.2,0.2-0.3,0.5-0.3c3.8,0,7.5,0,11.3,0c0.1,0,0.1,0,0.3,0v7.4h10.7V10.1h5.9v24.8h10.8V10.1h5.9
		v17.4h16.7v7.4h10.7v-0.5C113.9,23.1,113.9,11.8,113.9,0.5z M53.2,17.6h-5.6c1.9-3,3.7-5.9,5.5-8.8c0,0,0,0,0.1,0V17.6z"/>
	<path id="Fill-4" fill="#EA223E" d="M119.3,21.5V0h10.8v0.4c0,4.7,0,9.4,0,14.2c0,0.2,0,0.4-0.3,0.5c-3.4,2.1-6.8,4.2-10.2,6.3
		C119.5,21.4,119.5,21.5,119.3,21.5"/>
	<g id="Group-8" transform="translate(118.438356, 23.328767)">
		<g id="Clip-7">
		</g>
		<defs>
			<filter id="Adobe_OpacityMaskFilter" filterUnits="userSpaceOnUse" x="0" y="0.1" width="12.5" height="12.5">
				<feColorMatrix  type="matrix" values="1 0 0 0 0  0 1 0 0 0  0 0 1 0 0  0 0 0 1 0"/>
			</filter>
		</defs>
		<mask maskUnits="userSpaceOnUse" x="0" y="0.1" width="12.5" height="12.5" id="mask-4">
			<g filter="url(#Adobe_OpacityMaskFilter)">
				<polygon id="path-3" fill="#FFFFFF" points="12.5,12.6 0,12.6 0,0.1 12.5,0.1 				"/>
			</g>
		</mask>
		<path id="Fill-6" mask="url(#mask-4)" fill="#EA223E" d="M6.3,0.1c3.7,0,6.3,2.9,6.3,6c0,3.7-2.7,6.5-6.3,6.5
			C2.8,12.6,0,9.6,0,6.1C0,2.8,2.8,0.1,6.3,0.1"/>
	</g>
</g>
</svg>
