<?xml version="1.0" encoding="utf-8"?>
<!-- Generator: Adobe Illustrator 21.1.0, SVG Export Plug-In . SVG Version: 6.00 Build 0)  -->
<svg version="1.1" id="Слой_1" xmlns="http://www.w3.org/2000/svg" xmlns:xlink="http://www.w3.org/1999/xlink" x="0px" y="0px"
	 width="16" height="16" viewBox="0 0 15.5 15.1" enable-background="new 0 0 15.5 15.1" xml:space="preserve">
<path fill="#FFFFFF" d="M15.2,0.5L15.2,0.5C15,0.2,14.6,0,14.1,0c-0.3,0-0.6,0.1-0.9,0.2L0.9,6.7C0,7.2,0,7.9,0,8.1
	c0,0.3,0.1,1,1.1,1.3l1.6,0.6c0.3,0.1,0.6,0.2,1,0.2c0.1,0,0.1,0,0.2,0c0,0,0,0-0.1,0.1c-0.3,0.4-0.3,1,0,1.7c0,0,0,0,0,0
	c0.5,1,1,2.2,1.1,2.4c0.2,0.4,0.5,0.7,1,0.7c0.7,0,0.9-0.3,2-2.1C7.8,12.9,8,12.6,8,12.2c0.1,0.1,0.2,0.1,0.3,0.1l1.8,0.7l0.8,0.3
	c0.2,0.1,0.4,0.2,0.5,0.2c0.8,0,1-0.7,1.1-1.1c0-0.2,0.1-0.4,0.2-0.7l2.7-9.8C15.6,1.2,15.4,0.7,15.2,0.5z M6.8,12.4
	c0,0-1,1.6-1.1,1.6c0,0,0,0,0,0c-0.1-0.3-1.1-2.4-1.1-2.4c-0.2-0.4-0.1-0.8,0.2-0.8c0.1,0,0.2,0,0.2,0.1l0.8,0.4
	c0.1,0.1,0.3,0.2,0.4,0.2l0,0l0.1,0C6.9,11.9,7.1,12,6.8,12.4z M14.4,1.7l-2.7,9.8c-0.2,0.5-0.3,1-0.3,1l0,0c0,0-0.4-0.2-1-0.4
	l-1.8-0.7c-0.5-0.2-1.4-0.6-1.9-0.8l-0.1,0l-0.3-0.2c-0.3-0.2-0.4-0.7,0-1l5.4-5.8C12,3.3,12.1,3.2,12,3.2c0,0-0.2,0.1-0.4,0.2
	L4.8,8.9C4.5,9.1,4.1,9.2,3.6,9.2c-0.2,0-0.4,0-0.6-0.1L1.5,8.5c-0.5-0.2-0.6-0.6,0-0.9l12.4-6.5C13.9,1.1,14,1,14.1,1
	C14.4,1,14.5,1.3,14.4,1.7L14.4,1.7z"/>
</svg>
