<?xml version="1.0" encoding="UTF-8"?>
<svg width="97px" height="27px" viewBox="0 0 97 27" version="1.1" xmlns="http://www.w3.org/2000/svg" xmlns:xlink="http://www.w3.org/1999/xlink">
    <!-- Generator: Sketch 49 (51002) - http://www.bohemiancoding.com/sketch -->
    <title>vimeo_logo_dark</title>
    <desc>Created with Sketch.</desc>
    <defs>
        <polygon id="path-1" points="0.00704600484 18.4873846 0.00704600484 0.0426531551 21.6942888 0.0426531551 21.6942888 18.4873846"></polygon>
    </defs>
    <g id="Page-1" stroke="none" stroke-width="1" fill="none" fill-rule="evenodd">
        <g id="vimeo_logo_dark">
            <g>
                <g id="Group-3" transform="translate(0.000000, 8.423077)">
                    <mask id="mask-2" fill="white">
                        <use xlink:href="#path-1"></use>
                    </mask>
                    <g id="Clip-2"></g>
                    <path d="M21.683845,4.30984615 C21.5869625,6.38561538 20.1121162,9.22776923 17.2593063,12.8351538 C14.3097312,16.6031538 11.8142712,18.4873846 9.77280872,18.4873846 C8.50863801,18.4873846 7.43811501,17.3403462 6.56417554,15.045 C5.98041404,12.9413077 5.39665254,10.8376154 4.81312591,8.73415385 C4.163954,6.44007692 3.46780872,5.29176923 2.72328087,5.29176923 C2.56098789,5.29176923 1.99296247,5.62753846 1.02073123,6.29607692 L0,5.00365385 C1.070523,4.07907692 2.12683656,3.1545 3.16612228,2.22853846 C4.59376029,1.01584615 5.66580993,0.378 6.38050969,0.313730769 C8.06873245,0.154269231 9.10801816,1.28861538 9.49813196,3.71676923 C9.91936562,6.33657692 10.2111877,7.96615385 10.3750073,8.60388462 C10.8617688,10.7775 11.3970303,11.8631538 11.982201,11.8631538 C12.4361985,11.8631538 13.1181344,11.1580385 14.027891,9.74815385 C14.9360036,8.33815385 15.423,7.26542308 15.4884104,6.52823077 C15.6179395,5.31138462 15.1310605,4.70146154 14.027891,4.70146154 C13.5082482,4.70146154 12.9729867,4.81892308 12.4221065,5.05119231 C13.4882845,1.61873077 15.5254019,-0.0485769231 18.5320496,0.0465 C20.7612881,0.110884615 21.8119649,1.53196154 21.683845,4.30984615" id="Fill-1" fill="#FFFFFF" mask="url(#mask-2)"></path>
                </g>
                <path d="M30.8357833,2.43542308 C30.8031368,3.22996154 30.3974044,3.99219231 29.6172942,4.72246154 C28.7404189,5.54757692 27.7011332,5.96030769 26.4996719,5.96030769 C24.6490387,5.96030769 23.7550182,5.16726923 23.820546,3.57957692 C23.8517833,2.75446154 24.3472349,1.95992308 25.3053741,1.19757692 C26.2633959,0.436730769 27.3267554,0.0548076923 28.4969794,0.0548076923 C29.1787978,0.0548076923 29.7468232,0.317769231 30.2023475,0.840923077 C30.6564625,1.36546154 30.8672554,1.89692308 30.8357833,2.43542308 Z M35.0738378,19.4565 C34.1641985,21.1461923 32.9142373,22.6765385 31.3227797,24.0471923 C29.1460339,25.8964615 26.9709322,26.8210385 24.7957131,26.8210385 C23.7877821,26.8210385 23.0162446,26.5021154 22.4809831,25.8641538 C21.9457215,25.2263077 21.6938269,24.3984231 21.7264734,23.3771538 C21.7578281,22.3255385 22.0908692,20.6987308 22.7243051,18.4983462 C23.3578584,16.2981923 23.6753983,15.1178077 23.6753983,14.9582308 C23.6753983,14.1301154 23.3820496,13.7148462 22.7984056,13.7148462 C22.6034661,13.7148462 22.0510593,14.0506154 21.1414201,14.7191538 L20.0211053,13.4267308 C21.0602736,12.5021538 22.0994419,11.5775769 23.1387276,10.6516154 C24.5351283,9.43892308 25.5742966,8.80107692 26.2577591,8.73680769 C27.3282821,8.64161538 28.1154383,8.95073077 28.619345,9.66692308 C29.1218426,10.383 29.3084443,11.3118462 29.1803245,12.456 C28.7574467,14.3960769 28.3019225,16.8591923 27.8150436,19.8467308 C27.7822797,21.2147308 28.2861864,21.8973462 29.3254722,21.8973462 C29.7795872,21.8973462 30.5909346,21.426 31.7611586,20.4805385 C32.7349165,19.6944231 33.5306453,18.9544615 34.1484625,18.2607692 L35.0738378,19.4565 Z" id="Fill-4" fill="#FFFFFF"></path>
                <path d="M65.4948462,19.4565 C64.5850896,21.1461923 63.3352458,22.6765385 61.7436707,24.0471923 C59.5671598,25.8964615 57.3917058,26.8210385 55.2167215,26.8210385 C53.103977,26.8210385 52.081954,25.674 52.147247,23.3771538 C52.1786017,22.3561154 52.3822312,21.1294615 52.7551998,19.6944231 C53.1282857,18.2592692 53.3319153,17.1430385 53.3645617,16.3459615 C53.3973257,15.1345385 53.0228305,14.5275 52.2399019,14.5275 C51.3929722,14.5275 50.383632,15.5177308 49.2105896,17.4955385 C47.9721368,19.5699231 47.3030012,21.5799231 47.2061186,23.5255385 C47.1407082,24.8990769 47.2774007,25.9523077 47.6161961,26.6853462 C45.3498487,26.7497308 43.7623838,26.3818846 42.8569722,25.5844615 C42.0456247,24.8823462 41.6740654,23.7186923 41.7395932,22.0903846 C41.7708305,21.0693462 41.9303051,20.0483077 42.2177821,19.0272692 C42.5039673,18.0062308 42.6633245,17.097 42.6960884,16.2981923 C42.7616162,15.1178077 42.3217107,14.5275 41.3793075,14.5275 C40.5650242,14.5275 39.6867397,15.438 38.7443366,17.2563462 C37.8019334,19.0748077 37.2809988,20.9741538 37.1841162,22.9520769 C37.1185884,24.7397308 37.2353172,25.9831154 37.5328935,26.6853462 C35.3035375,26.7497308 33.7205351,26.2879615 32.7837688,25.3003846 C32.0065944,24.474 31.6521804,23.2178077 31.7175908,21.5308846 C31.7489455,20.7042692 31.8969116,19.5503077 32.1645424,18.0703846 C32.4321731,16.5905769 32.5816659,15.438 32.6130206,14.6101154 C32.6770218,14.0379231 32.5304649,13.7510769 32.1745242,13.7510769 C31.9794673,13.7510769 31.427178,14.0742692 30.5175387,14.7191538 L29.3488414,13.4267308 C29.5111344,13.3008462 30.5331574,12.3748846 32.4179637,10.6516154 C33.7817179,9.40823077 34.7070932,8.77026923 35.1938547,8.73807692 C36.038201,8.67392308 36.7200194,9.0165 37.2396622,9.76626923 C37.7591877,10.5160385 38.0197724,11.3859231 38.0197724,12.3748846 C38.0197724,12.6938077 37.9870085,12.9972692 37.9230073,13.2841154 C38.4097688,12.5510769 38.9777942,11.9118462 39.6283753,11.3690769 C41.1216586,10.0936154 42.7943801,9.37453846 44.6451308,9.21507692 C46.2367058,9.08780769 47.3727567,9.45426923 48.0561017,10.3159615 C48.6069818,11.0180769 48.86604,12.0237692 48.8346852,13.3315385 C49.0626235,13.1413846 49.3059455,12.933 49.5665303,12.7091538 C50.3124673,11.8475769 51.0427857,11.1621923 51.757368,10.6516154 C52.9588293,9.78992308 54.2101998,9.31165385 55.5084262,9.21507692 C57.0671199,9.08780769 58.1875521,9.45288462 58.8694879,10.3116923 C59.4530145,11.0111538 59.7135993,12.0125769 59.6495981,13.3148077 C59.6167167,14.2056923 59.3977034,15.5011154 58.9918535,17.2018846 C58.5847119,18.9027692 58.3824915,19.8790385 58.3824915,20.1335769 C58.349845,20.8022308 58.4153729,21.2625 58.5775484,21.5170385 C58.7399588,21.7714615 59.128546,21.8973462 59.7464806,21.8973462 C60.2005956,21.8973462 61.0118257,21.426 62.1820496,20.4805385 C63.1559249,19.6944231 63.9515363,18.9544615 64.5694709,18.2607692 L65.4948462,19.4565" id="Fill-5" fill="#FFFFFF"></path>
                <g id="Group-9" transform="translate(60.830508, 8.538462)" fill="#FFFFFF">
                    <path d="M11.8732228,5.87157692 C11.9045775,5.01553846 11.5486368,4.58607692 10.8026998,4.58607692 C9.82905932,4.58607692 8.84097458,5.24492308 7.83597942,6.5625 C6.83098426,7.88007692 6.3113414,9.14169231 6.27998668,10.3474615 C6.26154964,10.3474615 6.26154964,10.5544615 6.27998668,10.9670769 C7.86862591,10.3963846 9.24670702,9.52373077 10.4141126,8.34853846 C11.3535799,7.33326923 11.8403414,6.50653846 11.8732228,5.87157692 Z M22.9314576,10.8691154 C21.988937,12.3994615 20.1385387,13.9281923 17.3781489,15.4570385 C13.9358232,17.4012692 10.4439407,18.372 6.90496731,18.372 C4.27422397,18.372 2.38941768,17.5103077 1.25336683,15.7886538 C0.441901937,14.6080385 0.0517881356,13.2049615 0.0846694915,11.577 C0.116024213,8.99353846 1.28624818,6.53734615 3.59228814,4.20703846 C6.12485714,1.65576923 9.11295036,0.378692308 12.5551586,0.378692308 C15.7381913,0.378692308 17.4265315,1.65288462 17.6214709,4.19861538 C17.751,5.82103846 16.8413608,7.49261538 14.8940799,9.21173077 C12.8142167,11.0903077 10.199092,12.2833846 7.05023245,12.7923462 C7.63387651,13.5882692 8.51063438,13.9856538 9.68085835,13.9856538 C12.0183705,13.9856538 14.5679673,13.4022692 17.3296489,12.2329615 C19.3098111,11.412 20.8687397,10.5586154 22.0060823,9.67465385 L22.9314576,10.8691154 Z" id="Fill-6"></path>
                    <path d="M30.6502385,7.48015385 C30.6831199,6.61719231 30.5607542,5.82530769 30.2845508,5.10634615 C30.00823,4.3875 29.6097785,4.02657692 29.0915448,4.02657692 C27.4345593,4.02657692 26.0706877,4.90638462 25.0003995,6.66461538 C24.0892337,8.10403846 23.6022373,9.63830769 23.5382361,11.2677692 C23.5055896,12.0678462 23.6520291,12.7714615 23.976615,13.3785 C24.3325557,14.0821154 24.8364625,14.433 25.4870436,14.433 C26.9476804,14.433 28.1990508,13.587 29.2382191,11.8916538 C30.114977,10.4845385 30.5849455,9.01442308 30.6502385,7.48015385 Z M36.1552821,7.66061538 C36.0244613,10.5921923 34.9210569,13.1254615 32.8427203,15.2597308 C30.7643838,17.3942308 28.1819056,18.4615385 25.0970472,18.4615385 C22.5317143,18.4615385 20.5829068,17.6487692 19.251799,16.0234615 C18.2781586,14.8135385 17.7413705,13.3001538 17.6447228,11.4848077 C17.4810206,8.74453846 18.4874249,6.22673077 20.665345,3.93288462 C23.0029746,1.38438462 25.9411586,0.110192308 29.4815412,0.110192308 C31.7536429,0.110192308 33.4748644,0.859961538 34.6448535,2.35661538 C35.7495496,3.72726923 36.2521646,5.49519231 36.1552821,7.66061538 Z" id="Fill-8"></path>
                </g>
            </g>
        </g>
    </g>
</svg>